<?xml version="1.0" standalone="no"?>
<!DOCTYPE svg PUBLIC "-//W3C//DTD SVG 20010904//EN"
 "http://www.w3.org/TR/2001/REC-SVG-20010904/DTD/svg10.dtd">
<svg version="1.0" xmlns="http://www.w3.org/2000/svg"
 width="1024.000000pt" height="1024.000000pt" viewBox="0 0 1024.000000 1024.000000"
 preserveAspectRatio="xMidYMid meet">
<metadata>
Created by potrace 1.16, written by Peter Selinger 2001-2019
</metadata>
<g transform="translate(0.000000,1024.000000) scale(0.100000,-0.100000)"
fill="#000000" stroke="none">
<path d="M6518 9204 c-67 -13 -204 -75 -268 -120 -81 -58 -175 -165 -218 -250
-11 -22 -33 -74 -48 -115 -24 -68 -26 -87 -27 -224 0 -134 3 -158 25 -225 27
-80 60 -149 90 -190 47 -63 72 -89 81 -83 6 3 7 1 3 -5 -4 -6 8 -24 25 -39 18
-15 40 -35 49 -43 38 -37 157 -100 215 -114 16 -4 36 -12 42 -18 18 -14 19
-1378 2 -1429 -12 -35 -68 -106 -154 -195 -27 -29 -107 -112 -176 -186 -329
-349 -334 -355 -380 -458 l-24 -55 0 -1175 0 -1175 176 -178 c97 -97 184 -177
193 -177 16 0 17 89 10 1273 -7 1205 -6 1275 11 1327 21 67 39 91 144 200 178
184 222 230 347 365 161 174 187 208 216 276 l23 54 5 770 5 770 40 10 c101
25 258 130 325 217 22 29 44 58 49 64 19 23 59 111 82 179 21 62 24 87 23 230
0 140 -3 168 -23 225 -53 154 -144 280 -266 370 -73 54 -200 111 -280 126 -86
17 -228 16 -317 -2z m298 -386 c74 -30 162 -116 198 -193 21 -47 26 -72 26
-141 0 -112 -26 -177 -102 -254 -74 -77 -129 -101 -238 -107 -76 -5 -92 -2
-149 21 -67 29 -73 33 -124 83 -50 51 -54 57 -83 124 -23 57 -26 73 -21 149 3
58 11 100 26 132 24 52 119 154 160 170 78 32 103 37 173 38 58 0 92 -6 134
-22z"/>
<path d="M4341 8051 c-46 -16 -88 -34 -94 -40 -6 -6 -17 -11 -24 -11 -14 0
-86 -45 -113 -70 -9 -8 -30 -27 -46 -41 -48 -43 -104 -107 -104 -118 0 -6 -4
-11 -9 -11 -10 0 -82 -145 -102 -205 -9 -27 -13 -94 -13 -205 0 -153 2 -170
26 -235 37 -101 111 -235 129 -235 5 0 9 -5 9 -12 0 -15 83 -91 140 -128 25
-17 54 -37 65 -45 10 -8 24 -15 30 -15 5 -1 28 -9 50 -20 22 -11 48 -19 58
-20 16 0 17 -46 17 -822 l0 -823 -109 109 c-72 72 -113 106 -121 101 -8 -5
-11 -4 -6 3 3 6 -200 215 -461 476 -418 415 -568 556 -593 556 -5 0 -15 7 -24
15 -24 24 -194 100 -276 122 -243 68 -530 71 -720 7 -25 -9 -58 -19 -75 -23
-116 -32 -298 -145 -412 -258 -191 -189 -282 -351 -334 -597 -18 -85 -19 -162
-19 -1766 0 -1643 0 -1679 20 -1773 11 -54 27 -112 34 -130 49 -115 64 -147
91 -187 16 -25 33 -46 37 -48 4 -2 8 -9 8 -15 0 -16 137 -154 202 -204 100
-77 171 -113 321 -161 l82 -26 613 -4 612 -3 0 1220 0 1221 359 -357 c624
-623 679 -676 692 -668 8 6 10 4 4 -4 -10 -17 938 -960 1079 -1074 103 -84
149 -118 176 -130 8 -4 35 -20 60 -36 38 -25 154 -84 265 -136 36 -17 133 -52
195 -69 44 -13 67 -19 205 -51 184 -42 574 -45 743 -5 201 47 367 120 477 208
54 43 176 166 215 217 76 99 152 253 193 390 21 70 21 81 27 1640 5 1525 6
1572 24 1600 24 38 49 61 128 120 35 27 72 57 83 67 43 40 76 68 137 114 35
26 65 51 68 54 3 3 50 43 106 87 100 81 151 139 189 218 18 35 21 68 25 265
l5 225 30 8 c48 15 165 70 165 79 0 4 7 8 15 8 19 0 185 165 185 184 0 8 4 16
9 18 13 5 60 103 84 176 18 56 22 91 22 207 0 148 -12 206 -66 315 -32 65
-123 183 -166 216 -21 15 -40 31 -43 34 -22 25 -120 76 -210 107 -68 24 -88
27 -215 26 -124 -1 -148 -4 -211 -27 -88 -31 -131 -55 -211 -119 -65 -51 -153
-146 -153 -166 0 -6 -4 -11 -8 -11 -12 0 -68 -124 -89 -195 -12 -42 -17 -96
-18 -180 0 -125 13 -193 56 -280 10 -22 19 -43 19 -48 0 -7 43 -77 65 -105 29
-37 151 -152 161 -152 7 0 14 -4 16 -8 5 -13 119 -68 156 -77 l32 -7 0 -155
c0 -139 -2 -159 -21 -192 -13 -22 -80 -83 -180 -161 -146 -114 -185 -145 -229
-182 -8 -7 -41 -32 -75 -57 -127 -92 -205 -194 -253 -330 -15 -42 -17 -197
-22 -1636 l-5 -1590 -27 -67 c-51 -126 -102 -203 -180 -273 -119 -107 -243
-165 -418 -196 -361 -63 -837 44 -1144 259 -26 17 -50 32 -53 32 -4 0 -13 7
-22 15 -9 8 -38 34 -66 58 -47 39 -256 236 -318 299 -15 16 -33 26 -39 22 -6
-4 -8 -3 -4 4 3 6 -187 202 -430 444 -424 421 -889 883 -1597 1586 -202 199
-353 342 -364 342 -17 0 -18 -51 -15 -1480 l2 -1480 -357 0 c-450 1 -513 12
-653 116 -50 37 -98 85 -140 140 -30 39 -50 82 -75 160 l-25 79 2 1685 c3
1628 4 1687 22 1740 29 84 67 160 103 207 18 24 33 45 33 48 0 6 92 94 129
125 39 31 96 66 141 85 19 9 42 20 52 25 33 18 195 52 278 57 80 5 112 1 290
-36 51 -11 197 -86 249 -129 25 -20 155 -145 287 -277 908 -902 1529 -1510
1545 -1513 19 -3 19 25 19 1275 0 1026 2 1279 12 1282 46 15 191 90 233 122
175 130 272 322 282 555 5 102 2 132 -16 200 -20 74 -67 193 -80 204 -3 3 -19
25 -35 50 -59 92 -174 189 -286 241 -116 55 -149 62 -295 66 -134 3 -144 2
-224 -26z m319 -359 c80 -25 132 -63 180 -132 13 -19 27 -37 30 -40 3 -3 14
-32 25 -65 25 -76 24 -143 -5 -228 -27 -79 -103 -170 -172 -205 -189 -94 -406
-14 -498 183 -19 41 -23 67 -23 140 0 78 3 98 28 150 79 168 264 251 435 197z
m3985 -398 c71 -37 130 -98 166 -172 29 -60 31 -71 27 -151 -3 -69 -9 -97 -31
-142 -34 -68 -94 -128 -166 -165 -46 -23 -65 -27 -140 -28 -76 0 -93 3 -145
29 -76 38 -139 102 -173 173 -23 49 -27 70 -27 143 1 74 5 93 30 143 49 99
143 176 239 196 65 14 164 2 220 -26z"/>
</g>
</svg>
